<svg id="Layer_1" data-name="Layer 1" xmlns="http://www.w3.org/2000/svg" width="189.8" height="219.2" viewBox="0 0 189.8 219.2"><title>super-bubbles</title><polygon points="94.9 0 189.8 54.8 189.8 164.4 94.9 219.2 0 164.4 0 54.8 94.9 0"/><path d="M41.3,154l-4.2-5.9a2,2,0,0,1,.2-2.1l15-17.7H44.9a1.7,1.7,0,0,1-1.8-1.8V113.6a1.7,1.7,0,0,1,1.8-1.8H55.3a53.4,53.4,0,0,1-2-13.7,42.6,42.6,0,0,1,85.2,0,45.9,45.9,0,0,1-2,13.7h10.4a1.7,1.7,0,0,1,1.8,1.8v12.9a1.7,1.7,0,0,1-1.8,1.8h-9.2L152.5,146a1.8,1.8,0,0,1,0,2.1l-4.1,5.9a1.9,1.9,0,0,1-2.4.6l-8.6-4.5H52.3l-8.7,4.5A1.8,1.8,0,0,1,41.3,154Zm27.3-25.7H56.8L40.9,147l2.5,3.6,30.5-16ZM46.7,115.4v9.3h98.4v-9.3Zm12.4-3.6h73.6a45.2,45.2,0,0,0,2.2-13.7,39,39,0,0,0-78,0C56.9,102.8,57.3,107.6,59.1,111.8Zm17.3,25.7-17.1,9H83.7Zm-3.1-9.2,15.1,18.2h13l15.1-18.2Zm40.1,9.2-7.3,9h24.4Zm19.7-9.2H121.2l-5.4,6.3,30.6,16,2.5-3.4Z" fill="#fff"/></svg>