<svg id="Layer_1" data-name="Layer 1" xmlns="http://www.w3.org/2000/svg" width="189.8" height="219.2" viewBox="0 0 189.8 219.2"><title>super-domes</title><polygon points="94.9 0 189.8 54.8 189.8 164.4 94.9 219.2 0 164.4 0 54.8 94.9 0"/><path d="M42.9,150.1a1.7,1.7,0,0,1-1.8-1.8V126.5H17.3a1.8,1.8,0,0,1,0-3.6H30.8V111.2a1.7,1.7,0,0,1,1.8-1.8h7.1a57,57,0,0,1,55-43.7c.2-.2.4-.2.7,0a57,57,0,0,1,54.8,43.7h7a1.7,1.7,0,0,1,1.8,1.8v11.7h13.5a1.8,1.8,0,1,1,0,3.6H148.7v21.8a1.7,1.7,0,0,1-1.8,1.8ZM34.4,113v9.9h121V113ZM91.3,69.5c-23,1.4-42.3,18.1-47.9,39.9H62.7Zm-46.6,57v20H93.1v-20ZM93.1,73.1,67.2,109.4H93.1Zm3.6-3.8v40.1h49.7A53.6,53.6,0,0,0,96.7,69.3Zm0,57.2v20h8.1v-20Zm11.7,0v20h36.7v-20Z" fill="#fff"/></svg>